PathFileType	4	(X/Y/Z)	C:/Users/beibeiliu/ov580/test_trc/User2\sequence.33_training_dense_left.trc
DataRate	CameraRate	NumFrames	NumMarkers	Units	OrigDataRate	OrigDataStartFrame	OrigNumFrames
120	120	9	19	mm	120	1	424
Frame#	Time	ThumbCMC			ThumbMCP			ThumbIP			ThumbTip			IndexMCP			IndexPIP			IndexTip			MiddleMCP			MiddlePIP			MiddleTip			RingMCP			RingPIP			RingTip			PinkyMCP			PinkyPIP			PinkyTip			BackHand1			BackHand2			BackHand3	
		X0	Y0	Z0	X1	Y1	Z1	X2	Y2	Z2	X3	Y3	Z3	X4	Y4	Z4	X5	Y5	Z5	X6	Y6	Z6	X7	Y7	Z7	X8	Y8	Z8	X9	Y9	Z9	X10	Y10	Z10	X11	Y11	Z11	X12	Y12	Z12	X13	Y13	Z13	X14	Y14	Z14	X15	Y15	Z15	X16	Y16	Z16	X17	Y17	Z17	X18	Y18	Z18	
0	0	-144.295	-68.4621	87.5743	-124.792	-78.3078	67.7976	-101.449	-85.9249	42.3029	-87.7223	-96.5461	20.3813	-163.942	-71.587	5.06178	-157.945	-75.9421	-21.9264	-155.197	-82.5758	-54.8163	-188.719	-72.6212	-3.7317	-190.994	-79.9357	-35.3014	-194.547	-91.3032	-65.6969	-212.016	-77.7664	2.15356	-216.695	-83.9973	-21.1105	-219.693	-96.9869	-48.6451	-236.251	-86.0117	23.3165	-242.511	-92.4081	1.95058	-245.963	-96.0293	-24.6687	-211.178	-59.7145	54.7967	-210.842	-46.6469	90.3755	-176.687	-49.9833	68.694	
1	0.00833333	-146.174	-69.724	85.1744	-124.585	-77.7426	66.1286	-106.896	-87.5805	41.1995	-88.99	-97.5813	20.4983	-164.93	-71.3273	3.25775	-160.134	-75.4734	-26.4776	-157.849	-83.1202	-55.9041	-188.525	-72.6291	-6.46113	-190.446	-79.1642	-33.1761	-195.098	-91.527	-65.9763	-217.061	-76.9112	4.31542	-216.595	-84.4306	-21.6018	-220.385	-98.5275	-53.5669	-233.746	-85.8472	26.9421	-244.731	-92.2432	-3.1179	-249.472	-94.8285	-23.3144	-213.748	-60.0894	58.7316	-210.348	-46.2158	87.346	-176.287	-51.1691	67.0071	
2	0.0166667	-146.52	-70.311	87.1832	-126.645	-78.4693	68.7167	-103.366	-87.7524	38.4397	-91.5523	-97.6338	24.4182	-159.902	-71.9975	0.0343534	-160.493	-76.1165	-24.1455	-154.186	-82.0657	-51.6393	-191.175	-71.8876	-3.13431	-191.009	-79.9079	-34.2972	-192.19	-91.1124	-64.4277	-212.145	-76.9083	5.95274	-217.695	-86.5131	-25.5951	-221.716	-98.9538	-52.1853	-235.752	-85.0295	25.793	-244.985	-92.7189	-0.702036	-248.432	-97.7587	-23.518	-214.676	-59.7587	58.132	-209.885	-48.1499	87.5556	-178.023	-51.1217	69.9626	
3	0.025	-143.382	-69.8028	82.5325	-126.85	-78.6759	65.6408	-105.163	-87.6617	40.118	-90.4022	-97.1463	25.9016	-162.6	-72.354	0.486245	-156.042	-75.7473	-27.2564	-159.458	-82.3425	-50.6738	-188.725	-71.6669	-1.73881	-191.247	-80.0257	-36.3306	-194.83	-91.2655	-65.0941	-211.963	-77.0609	3.21405	-218.42	-85.8447	-24.2219	-219.137	-96.138	-47.9687	-231.039	-85.6631	26.5324	-240.438	-91.1397	-1.16887	-248.655	-95.0673	-23.5749	-212.826	-61.2202	55.4938	-213.566	-48.1247	86.6498	-176.481	-51.2646	66.9469	
4	0.0333333	-147.395	-70.1887	86.3942	-125.277	-77.9686	63.9154	-102.51	-86.4643	41.5124	-87.6719	-96.137	24.0522	-159.853	-70.7828	3.98026	-157.729	-74.4183	-22.2732	-154.721	-80.1875	-50.2162	-186.288	-70.5577	-7.38238	-188.197	-80.3669	-38.2709	-191.99	-89.2778	-63.7513	-216.396	-77.4642	4.65088	-217.104	-85.1033	-25.6866	-221.265	-97.9282	-51.6852	-236.633	-85.2754	24.8209	-238.847	-91.0215	0.149408	-248.561	-94.2958	-23.768	-213.392	-58.8475	55.9588	-207.617	-46.9622	85.0186	-176.914	-51.7787	67.2729	
5	0.0416667	-146.804	-70.3693	82.381	-126.324	-77.6944	64.8533	-104.771	-86.6679	37.8331	-87.2111	-96.1201	23.0603	-159.188	-70.9099	5.36435	-160.425	-75.4911	-26.3015	-155.424	-80.7634	-50.1805	-190.401	-71.5119	-5.97481	-189.019	-78.8516	-35.6054	-195.078	-90.4073	-64.5403	-217.017	-77.2087	4.83919	-220.296	-85.4327	-24.8435	-222.682	-96.7497	-48.5378	-234.374	-84.2088	25.0643	-239.078	-90.7791	2.34818	-248.942	-96.1599	-22.4121	-209.896	-58.2938	59.4425	-209.828	-47.3918	87.5207	-173.564	-51.3563	68.5572	
6	0.05	-144.576	-69.4157	82.7478	-123.973	-77.3611	64.2611	-106.105	-88.1549	42.3437	-90.2166	-96.4149	24.0614	-163.258	-71.2482	0.295611	-157.166	-75.1679	-22.057	-157.814	-81.272	-50.5309	-191.649	-71.4971	-6.31753	-189.235	-78.3701	-33.2372	-193.496	-89.9727	-66.5046	-212.331	-76.4981	6.78232	-218.974	-84.6189	-21.9498	-219.36	-97.009	-52.6093	-236.846	-84.7019	25.4137	-242.795	-91.4501	-2.48018	-249.004	-95.3355	-24.0255	-209.004	-60.2527	60.3132	-211.419	-46.9252	89.369	-177.069	-49.4846	69.7191	
7	0.0583333	-144.804	-68.4716	87.2114	-124.95	-77.7548	67.1819	-102.26	-85.8156	38.8356	-86.5953	-95.0918	24.6647	-162.136	-70.452	1.45412	-156.352	-75.7274	-26.9696	-158.628	-81.0786	-50.9823	-189.725	-71.7485	-6.19828	-190.231	-79.1886	-34.1021	-189.973	-91.4877	-68.8079	-212.213	-76.3751	5.27545	-221.284	-85.241	-22.291	-221.535	-97.0539	-48.7631	-236.707	-83.9099	22.7879	-240.896	-91.0337	0.764298	-248.508	-96.501	-26.9985	-214.413	-59.917	60.339	-211.35	-47.3755	87.3181	-174.175	-48.7173	68.2333	
8	0.0666667	-145.131	-70.2768	84.4736	-125.775	-78.85	64.2982	-106.504	-87.6404	40.1994	-88.6611	-96.2059	20.4664	-162.009	-70.7185	3.77373	-157.671	-75.4191	-27.7533	-153.272	-82.3419	-55.2804	-188.889	-71.199	-2.98936	-192.588	-80.3383	-37.6141	-192.328	-91.3232	-66.2307	-214.239	-76.5053	3.65318	-220.404	-84.8167	-22.164	-218.147	-98.3316	-51.5608	-236.243	-84.2214	27.3063	-240.7	-90.8298	1.67504	-248.963	-96.086	-24.8866	-211.654	-60.8029	58.5159	-211.631	-47.605	90.359	-175.77	-51.2297	69.8135	
